<?xml version="1.0" encoding="utf-8"?>
<!-- Generator: Adobe Illustrator 16.0.0, SVG Export Plug-In . SVG Version: 6.00 Build 0)  -->
<!DOCTYPE svg PUBLIC "-//W3C//DTD SVG 1.1//EN" "http://www.w3.org/Graphics/SVG/1.1/DTD/svg11.dtd">
<svg version="1.1" id="Capa_1" xmlns="http://www.w3.org/2000/svg" xmlns:xlink="http://www.w3.org/1999/xlink" x="0px" y="0px"
	 width="5756.371px" height="3080px" viewBox="0 0 5756.371 3080" enable-background="new 0 0 5756.371 3080" xml:space="preserve">
<path fill="#009FE3" d="M3330.479,736h-904.587c-194.241,0-351.707,157.464-351.707,351.707v904.587
	c0,194.241,157.465,351.706,351.707,351.706h904.587c194.241,0,351.706-157.465,351.706-351.706v-904.587
	C3682.186,893.464,3524.721,736,3330.479,736z M2421.817,1519.795c0-153.243,59.676-297.313,168.035-405.674
	c108.071-108.072,251.67-167.706,404.459-168.021v-0.014h1.212c-0.401,0-0.803,0.014-1.212,0.014v9.042
	c0,75.436-48.756,142.458-118.05,165.424c-106.605,21.64-204.595,73.984-283.276,152.667
	c-94.693,94.691-151.241,217.344-162.009,349.337C2424.936,1588.992,2421.817,1554.631,2421.817,1519.795z M2995.523,2093.502
	c-153.242,0-297.311-59.674-405.671-168.036c-74.591-74.588-126.11-166.106-150.977-265.889
	c4.391-259.969,190.038-476.574,435.755-528.629c-163.853,51.496-283.018,208.22-283.018,388.847
	c0,222.717,181.192,403.91,403.91,403.91V2093.502z M3334.554,2091.077h-169.8v-142.506c0-189.614-154.261-343.877-343.879-343.877
	h-64.508v-169.801h64.508c283.246,0,513.679,230.438,513.679,513.678V2091.077z"/>
</svg>
