<?xml version="1.0" encoding="utf-8"?>
<!-- Generator: Adobe Illustrator 16.0.0, SVG Export Plug-In . SVG Version: 6.00 Build 0)  -->
<!DOCTYPE svg PUBLIC "-//W3C//DTD SVG 1.1//EN" "http://www.w3.org/Graphics/SVG/1.1/DTD/svg11.dtd">
<svg version="1.1" id="Capa_1" xmlns="http://www.w3.org/2000/svg" xmlns:xlink="http://www.w3.org/1999/xlink" x="0px" y="0px"
	 width="5756.371px" height="3080px" viewBox="0 0 5756.371 3080" enable-background="new 0 0 5756.371 3080" xml:space="preserve">
<path d="M3682.186,1992.294c0,194.241-157.465,351.706-351.706,351.706h-904.587c-194.241,0-351.707-157.465-351.707-351.706
	v-904.587c0-194.243,157.465-351.707,351.707-351.707h904.587c194.241,0,351.706,157.464,351.706,351.707V1992.294z"/>
<g>
	<path fill="#FFFFFF" d="M3334.554,2091.077h-169.8v-142.506c0-189.614-154.261-343.877-343.879-343.877h-64.508v-169.801h64.508
		c283.246,0,513.679,230.438,513.679,513.678V2091.077z"/>
</g>
<path fill="#FFFFFF" d="M2874.63,1130.948c-245.718,52.055-431.364,268.661-435.755,528.629
	c24.867,99.782,76.386,191.301,150.977,265.889c108.36,108.362,252.429,168.036,405.671,168.036v-169.797
	c-222.718,0-403.91-181.193-403.91-403.91C2591.613,1339.168,2710.777,1182.444,2874.63,1130.948"/>
<g>
	<path fill="#FFFFFF" d="M2994.311,955.142V946.1c-152.789,0.315-296.388,59.949-404.459,168.021
		c-108.358,108.361-168.035,252.431-168.035,405.674c0,34.836,3.119,69.197,9.158,102.774
		c10.768-131.993,67.316-254.646,162.009-349.337c78.682-78.683,176.671-131.027,283.276-152.667
		C2945.555,1097.6,2994.311,1030.578,2994.311,955.142z"/>
	<path fill="#FFFFFF" d="M2994.311,946.086v0.014c0.409,0,0.811-0.014,1.212-0.014H2994.311z"/>
</g>
</svg>
