<?xml version="1.0" encoding="utf-8"?>
<!-- Generator: Adobe Illustrator 16.0.0, SVG Export Plug-In . SVG Version: 6.00 Build 0)  -->
<!DOCTYPE svg PUBLIC "-//W3C//DTD SVG 1.1//EN" "http://www.w3.org/Graphics/SVG/1.1/DTD/svg11.dtd">
<svg version="1.1" id="Capa_1" xmlns="http://www.w3.org/2000/svg" xmlns:xlink="http://www.w3.org/1999/xlink" x="0px" y="0px"
	 width="5756.371px" height="3080px" viewBox="0 0 5756.371 3080" enable-background="new 0 0 5756.371 3080" xml:space="preserve">
<g>
	<path fill="#FFFFFF" d="M1173.677,2091.077h-169.8v-142.506c0-189.614-154.261-343.877-343.879-343.877h-64.508v-169.801h64.508
		c283.246,0,513.679,230.438,513.679,513.678V2091.077z"/>
</g>
<path fill="#FFFFFF" d="M713.753,1130.948c-245.718,52.055-431.364,268.661-435.755,528.629
	c24.867,99.782,76.386,191.301,150.977,265.889c108.36,108.362,252.429,168.036,405.671,168.036v-169.797
	c-222.718,0-403.91-181.193-403.91-403.91C430.736,1339.168,549.9,1182.444,713.753,1130.948"/>
<g>
	<path fill="#FFFFFF" d="M833.434,955.142V946.1c-152.789,0.315-296.388,59.949-404.459,168.021
		c-108.358,108.361-168.035,252.431-168.035,405.674c0,34.836,3.119,69.197,9.158,102.774
		c10.768-131.993,67.316-254.646,162.009-349.337c78.682-78.683,176.671-131.027,283.276-152.667
		C784.678,1097.6,833.434,1030.578,833.434,955.142z"/>
	<path fill="#FFFFFF" d="M833.434,946.086v0.014c0.409,0,0.811-0.014,1.212-0.014H833.434z"/>
</g>
<g>
	<path fill="#FFFFFF" d="M1836.147,1369.202l-44.866,44.374c-28.392-30.034-61.482-45.057-99.291-45.057
		c-32.951,0-60.537,10.922-82.781,32.771c-22.242,21.839-33.364,48.39-33.364,79.63c0,32.31,11.545,59.693,34.622,82.141
		c23.081,22.45,51.554,33.68,85.417,33.68c22.023,0,40.582-4.628,55.694-13.882c15.105-9.25,27.293-23.738,36.556-43.462h-96.93
		v-59.846h168.377l0.453,14.115c0,29.275-7.586,57.032-22.75,83.274c-15.173,26.242-34.815,46.264-58.929,60.07
		c-24.121,13.803-52.416,20.704-84.874,20.704c-34.735,0-65.72-7.554-92.944-22.64c-27.229-15.098-48.773-36.595-64.62-64.502
		c-15.851-27.919-23.778-58.025-23.778-90.339c0-44.285,14.637-82.814,43.912-115.584c34.737-38.988,79.943-58.477,135.605-58.477
		c29.127,0,56.352,5.385,81.692,16.158C1794.735,1331.431,1815.668,1347.055,1836.147,1369.202z"/>
	<path fill="#FFFFFF" d="M2159.692,1543.485h-199.542c2.882,17.601,10.578,31.597,23.095,41.981
		c12.515,10.397,28.474,15.59,47.894,15.59c23.212,0,43.154-8.108,59.845-24.342l52.331,24.574
		c-13.05,18.509-28.671,32.195-46.874,41.061c-18.198,8.88-39.816,13.313-64.844,13.313c-38.831,0-70.457-12.241-94.882-36.743
		c-24.426-24.498-36.63-55.174-36.63-92.035c0-37.771,12.172-69.132,36.519-94.086c24.346-24.948,54.868-37.431,91.582-37.431
		c38.982,0,70.682,12.482,95.108,37.431c24.417,24.954,36.633,57.907,36.633,98.862L2159.692,1543.485z M2097.58,1494.574
		c-4.105-13.807-12.196-25.033-24.275-33.68c-12.08-8.643-26.096-12.969-42.048-12.969c-17.325,0-32.519,4.863-45.584,14.563
		c-8.204,6.068-15.8,16.763-22.793,32.085H2097.58z"/>
	<path fill="#FFFFFF" d="M2326.249,1395.367c23.354,0,45.311,5.848,65.868,17.523c20.558,11.68,36.594,27.534,48.125,47.557
		c11.528,20.021,17.291,41.64,17.291,64.845c0,23.357-5.801,45.207-17.405,65.527c-11.604,20.324-27.417,36.209-47.439,47.663
		s-42.097,17.18-66.21,17.18c-35.496,0-65.794-12.626-90.899-37.886c-25.107-25.248-37.654-55.932-37.654-92.033
		c0-38.679,14.184-70.915,42.544-96.698C2265.347,1406.597,2293.94,1395.367,2326.249,1395.367z M2327.272,1453.846
		c-19.294,0-35.372,6.709-48.205,20.142c-12.84,13.415-19.257,30.601-19.257,51.529c0,21.541,6.345,38.987,19.031,52.333
		c12.682,13.344,28.752,20.021,48.201,20.021c19.451,0,35.636-6.749,48.553-20.247c12.911-13.504,19.37-30.867,19.37-52.106
		c0-21.241-6.348-38.487-19.034-51.767C2363.243,1460.479,2347.023,1453.846,2327.272,1453.846z"/>
	<path fill="#FFFFFF" d="M2493.711,1401.737h53.248v31.179c5.761-12.287,13.424-21.617,22.976-27.996
		c9.559-6.366,20.021-9.553,31.4-9.553c8.039,0,16.462,2.131,25.256,6.37l-19.342,53.476c-7.28-3.646-13.272-5.461-17.974-5.461
		c-9.555,0-17.632,5.908-24.23,17.748c-6.597,11.826-9.899,35.035-9.899,69.621l0.23,12.063v100.11h-61.665V1401.737z"/>
	<path fill="#FFFFFF" d="M2840.245,1401.737h61.891v212.063c0,41.861-8.42,72.656-25.258,92.381
		c-22.604,26.688-56.654,40.045-102.166,40.045c-24.271,0-44.67-3.034-61.205-9.105c-16.535-6.067-30.489-14.978-41.864-26.729
		c-11.379-11.766-19.798-26.062-25.258-42.889h68.488c6.067,6.976,13.879,12.242,23.438,15.813
		c9.556,3.559,20.854,5.343,33.901,5.343c16.683,0,30.107-2.575,40.276-7.738c10.158-5.159,17.328-11.825,21.496-20.022
		c4.171-8.191,6.261-22.296,6.261-42.317c-10.925,10.917-22.373,18.77-34.361,23.548c-11.982,4.773-25.557,7.166-40.726,7.166
		c-33.221,0-61.286-11.985-84.187-35.952c-22.906-23.965-34.357-54.298-34.357-91.012c0-39.283,12.134-70.834,36.403-94.653
		c21.994-21.537,48.239-32.31,78.729-32.31c14.256,0,27.72,2.618,40.384,7.854c12.668,5.224,25.371,13.836,38.113,25.823V1401.737z
		 M2775.848,1453.387c-19.561,0-35.717,6.559-48.459,19.681c-12.744,13.12-19.114,29.616-19.114,49.488
		c0,20.633,6.522,37.545,19.568,50.741c13.048,13.195,29.426,19.8,49.147,19.8c19.262,0,35.154-6.444,47.668-19.34
		c12.517-12.896,18.771-29.809,18.771-50.739c0-20.633-6.294-37.395-18.886-50.283
		C2811.954,1459.838,2795.722,1453.387,2775.848,1453.387z"/>
	<path fill="#FFFFFF" d="M3212.942,1543.485h-199.545c2.881,17.601,10.578,31.597,23.095,41.981
		c12.511,10.397,28.481,15.59,47.892,15.59c23.209,0,43.153-8.108,59.845-24.342l52.33,24.574
		c-13.041,18.509-28.668,32.195-46.869,41.061c-18.202,8.88-39.823,13.313-64.853,13.313c-38.831,0-70.456-12.241-94.875-36.743
		c-24.425-24.498-36.632-55.174-36.632-92.035c0-37.771,12.167-69.132,36.514-94.086c24.348-24.948,54.872-37.431,91.581-37.431
		c38.988,0,70.687,12.482,95.111,37.431c24.419,24.954,36.635,57.907,36.635,98.862L3212.942,1543.485z M3150.827,1494.574
		c-4.101-13.807-12.192-25.033-24.276-33.68c-12.082-8.643-26.091-12.969-42.053-12.969c-17.321,0-32.52,4.863-45.582,14.563
		c-8.205,6.068-15.802,16.763-22.788,32.085H3150.827z"/>
	<path fill="#FFFFFF" d="M3270.733,1310.5h62.121v91.237h36.853v53.476h-36.853v194.081h-62.121v-194.081h-31.857v-53.476h31.857
		V1310.5z"/>
	<path fill="#FFFFFF" d="M3519.199,1395.367c23.368,0,45.313,5.848,65.871,17.523c20.555,11.68,36.594,27.534,48.124,47.557
		c11.528,20.021,17.285,41.64,17.285,64.845c0,23.357-5.79,45.207-17.395,65.527c-11.603,20.324-27.417,36.209-47.438,47.663
		c-20.022,11.454-42.099,17.18-66.22,17.18c-35.496,0-65.792-12.626-90.899-37.886c-25.105-25.248-37.656-55.932-37.656-92.033
		c0-38.679,14.181-70.915,42.547-96.698C3458.298,1406.597,3486.891,1395.367,3519.199,1395.367z M3520.224,1453.846
		c-19.297,0-35.377,6.709-48.208,20.142c-12.842,13.415-19.262,30.601-19.262,51.529c0,21.541,6.343,38.987,19.036,52.333
		c12.682,13.344,28.763,20.021,48.21,20.021c19.445,0,35.622-6.749,48.538-20.247c12.919-13.504,19.374-30.867,19.374-52.106
		c0-21.241-6.349-38.487-19.029-51.767C3556.199,1460.479,3539.981,1453.846,3520.224,1453.846z"/>
	<path fill="#FFFFFF" d="M3673.817,1401.737h60.793l49.774,140.841l53.564-140.841h37.184l52.599,139.251l49.841-139.251h61.2
		l-90.335,247.557h-39.362l-52.793-141.063l-54.385,141.063h-38.899L3673.817,1401.737z"/>
	<path fill="#FFFFFF" d="M4073.925,1401.737h62.12v25.375c14.083-11.882,26.84-20.128,38.273-24.776
		c11.432-4.648,23.143-6.969,35.108-6.969c24.532,0,45.366,8.57,62.481,25.709c14.381,14.561,21.583,36.102,21.583,64.618v163.6
		h-61.437V1540.89c0-29.554-1.325-49.169-3.973-58.86c-2.649-9.699-7.264-17.085-13.847-22.156
		c-6.582-5.076-14.712-7.621-24.405-7.621c-12.563,0-23.333,4.198-32.34,12.619c-9.008,8.408-15.249,20.034-18.729,34.887
		c-1.817,7.725-2.715,24.467-2.715,50.216v99.32h-62.12V1401.737z"/>
	<path fill="#FFFFFF" d="M4446.599,1314.593h33.443v302.392h128.78v32.31h-162.224V1314.593z"/>
	<path fill="#FFFFFF" d="M4903.252,1401.737v247.557h-31.409v-42.543c-13.334,16.228-28.316,28.443-44.921,36.626
		c-16.624,8.195-34.788,12.285-54.513,12.285c-35.033,0-64.948-12.703-89.746-38.109c-24.81-25.409-37.206-56.318-37.206-92.718
		c0-35.646,12.511-66.14,37.544-91.472c25.025-25.334,55.134-37.996,90.327-37.996c20.324,0,38.725,4.326,55.172,12.976
		c16.458,8.642,30.903,21.611,43.341,38.897v-45.503H4903.252z M4775.937,1426.086c-17.713,0-34.083,4.363-49.083,13.068
		c-15.001,8.709-26.937,20.95-35.793,36.711c-8.869,15.762-13.293,32.426-13.293,49.992c0,17.429,4.47,34.094,13.401,50.005
		c8.942,15.907,20.95,28.291,36.025,37.148c15.068,8.87,31.245,13.304,48.531,13.304c17.415,0,33.933-4.393,49.533-13.185
		c15.621-8.782,27.61-20.675,36.027-35.677c8.419-15.001,12.61-31.893,12.61-50.688c0-28.624-9.427-52.565-28.294-71.819
		C4826.732,1435.715,4803.523,1426.086,4775.937,1426.086z"/>
	<path fill="#FFFFFF" d="M4976.975,1649.294v-343.12h31.84v138.121c13.333-16.393,28.273-28.638,44.789-36.758
		c16.521-8.11,34.62-12.17,54.323-12.17c35.001,0,64.895,12.704,89.686,38.115c24.764,25.404,37.159,56.24,37.159,92.492
		c0,35.793-12.5,66.363-37.503,91.695c-25,25.332-55.087,37.992-90.238,37.992c-20.173,0-38.423-4.315-54.791-12.97
		c-16.37-8.644-30.836-21.611-43.424-38.903v45.505H4976.975z M5104.399,1624.946c17.693,0,34.039-4.358,49.021-13.079
		c14.979-8.726,26.9-20.973,35.749-36.754c8.848-15.768,13.293-32.459,13.293-50.057c0-17.584-4.465-34.352-13.4-50.279
		c-8.931-15.932-20.919-28.326-35.984-37.205c-15.064-8.869-31.135-13.304-48.23-13.304c-17.416,0-33.931,4.435-49.596,13.304
		c-15.666,8.879-27.695,20.823-36.112,35.835c-8.401,15.022-12.59,31.935-12.59,50.74c0,28.68,9.424,52.645,28.25,71.907
		C5053.648,1615.321,5076.854,1624.946,5104.399,1624.946z"/>
	<path fill="#FFFFFF" d="M5417.239,1428.812l-20.47,21.165c-17.03-16.541-33.7-24.799-49.959-24.799
		c-10.344,0-19.211,3.408-26.586,10.238c-7.371,6.826-11.046,14.787-11.046,23.889c0,8.045,3.033,15.694,9.104,22.982
		c6.089,7.436,18.848,16.155,38.315,26.166c23.717,12.287,39.828,24.117,48.332,35.495c8.355,11.526,12.544,24.498,12.544,38.91
		c0,20.324-7.136,37.534-21.431,51.647c-14.274,14.104-32.117,21.156-53.55,21.156c-14.274,0-27.909-3.107-40.9-9.326
		c-12.995-6.219-23.742-14.786-32.248-25.707l20.024-22.759c16.264,18.358,33.529,27.537,51.775,27.537
		c12.778,0,23.636-4.093,32.611-12.287c8.972-8.196,13.462-17.821,13.462-28.901c0-9.105-2.971-17.215-8.888-24.34
		c-5.943-6.978-19.319-15.783-40.133-26.401c-22.351-11.528-37.544-22.899-45.622-34.126c-8.059-11.23-12.072-24.041-12.072-38.457
		c0-18.801,6.41-34.436,19.251-46.871c12.842-12.436,29.063-18.656,48.657-18.656
		C5371.21,1395.367,5394.14,1406.514,5417.239,1428.812z"/>
</g>
</svg>
